<svg width="24" height="24" viewBox="0 0 24 24" fill="none" xmlns="http://www.w3.org/2000/svg">
<path d="M6.28902 9.2567C6.0781 9.50699 5.74063 9.70385 5.40316 9.67573C5.36097 9.33825 5.5269 8.97828 5.72094 8.75893C5.93186 8.50301 6.30027 8.32021 6.60118 8.30615C6.63493 8.65487 6.49713 9.00078 6.28902 9.2567ZM6.59556 9.74041C6.10623 9.71229 5.6872 10.0188 5.45659 10.0188C5.22036 10.0188 4.86601 9.75447 4.47792 9.76291C3.97453 9.77134 3.50769 10.0554 3.25177 10.5082C2.72307 11.4165 3.11397 12.758 3.6258 13.4976C3.8761 13.8632 4.1742 14.2654 4.56791 14.2513C4.94195 14.2372 5.08818 14.0094 5.53815 14.0094C5.99092 14.0094 6.1231 14.2513 6.51682 14.2457C6.9246 14.2372 7.18051 13.8801 7.4308 13.5145C7.71484 13.0983 7.83296 12.6961 7.83858 12.6736C7.83015 12.6652 7.05115 12.3671 7.04271 11.4671C7.03427 10.7135 7.6586 10.3563 7.68672 10.3338C7.33519 9.81072 6.78679 9.75447 6.59556 9.74041ZM9.41908 8.72237V14.2035H10.2712V12.3305H11.4495C12.5266 12.3305 13.2803 11.5909 13.2803 10.5222C13.2803 9.45356 12.5379 8.72237 11.4777 8.72237H9.41908ZM10.2712 9.4395H11.2527C11.9923 9.4395 12.4141 9.83321 12.4141 10.525C12.4141 11.2169 11.9923 11.6162 11.2499 11.6162H10.2712V9.4395ZM14.8327 14.2457C15.367 14.2457 15.862 13.9757 16.087 13.5454H16.1038V14.2035H16.8913V11.4756C16.8913 10.6853 16.2585 10.1735 15.2855 10.1735C14.3827 10.1735 13.7134 10.691 13.6881 11.3996H14.4559C14.5205 11.0622 14.8327 10.84 15.2602 10.84C15.7804 10.84 16.0729 11.0819 16.0729 11.529V11.8327L15.0099 11.8974C14.0228 11.9565 13.4884 12.3614 13.4884 13.0645C13.4912 13.7732 14.0424 14.2457 14.8327 14.2457ZM15.0633 13.596C14.6105 13.596 14.3209 13.3767 14.3209 13.0448C14.3209 12.6989 14.5993 12.4992 15.1308 12.4683L16.0757 12.4093V12.7186C16.0757 13.2304 15.6398 13.596 15.0633 13.596ZM17.9459 15.694C18.7755 15.694 19.1664 15.3762 19.5067 14.4172L21 10.2269H20.1338L19.1327 13.4639H19.1158L18.1146 10.2269H17.2259L18.6658 14.2175L18.5871 14.4594C18.4577 14.87 18.2468 15.0303 17.8699 15.0303C17.8025 15.0303 17.6731 15.0219 17.6197 15.0162V15.6743C17.6703 15.6855 17.8812 15.694 17.9459 15.694Z" fill="#EEE8B2"/>
</svg>
