<svg width="24" height="24" viewBox="0 0 24 24" fill="none" xmlns="http://www.w3.org/2000/svg">
<path d="M18.0906 16.7906C18.0906 17.0031 17.9469 17.1562 17.7406 17.1562C17.5281 17.1562 17.3906 16.9937 17.3906 16.7906C17.3906 16.5875 17.5281 16.425 17.7406 16.425C17.9469 16.425 18.0906 16.5875 18.0906 16.7906ZM8.37813 16.425C8.15625 16.425 8.02812 16.5875 8.02812 16.7906C8.02812 16.9937 8.15625 17.1562 8.37813 17.1562C8.58125 17.1562 8.71875 17.0031 8.71875 16.7906C8.71562 16.5875 8.58125 16.425 8.37813 16.425ZM12.05 16.4156C11.8813 16.4156 11.7781 16.525 11.7531 16.6875H12.35C12.3219 16.5094 12.2125 16.4156 12.05 16.4156ZM15.4187 16.425C15.2063 16.425 15.0781 16.5875 15.0781 16.7906C15.0781 16.9937 15.2063 17.1562 15.4187 17.1562C15.6312 17.1562 15.7688 17.0031 15.7688 16.7906C15.7688 16.5875 15.6312 16.425 15.4187 16.425ZM18.7281 17.2406C18.7281 17.25 18.7375 17.2562 18.7375 17.275C18.7375 17.2844 18.7281 17.2906 18.7281 17.3094C18.7188 17.3187 18.7188 17.325 18.7125 17.3344C18.7031 17.3438 18.6969 17.35 18.6781 17.35C18.6688 17.3594 18.6625 17.3594 18.6438 17.3594C18.6344 17.3594 18.6281 17.3594 18.6094 17.35C18.6 17.35 18.5938 17.3406 18.5844 17.3344C18.575 17.325 18.5688 17.3187 18.5688 17.3094C18.5594 17.2937 18.5594 17.2844 18.5594 17.275C18.5594 17.2594 18.5594 17.25 18.5688 17.2406C18.5688 17.225 18.5781 17.2156 18.5844 17.2063C18.5938 17.1969 18.6 17.1969 18.6094 17.1906C18.625 17.1813 18.6344 17.1812 18.6438 17.1812C18.6594 17.1812 18.6688 17.1813 18.6781 17.1906C18.6938 17.2 18.7031 17.2 18.7125 17.2063C18.7219 17.2125 18.7188 17.225 18.7281 17.2406ZM18.6594 17.2844C18.675 17.2844 18.675 17.275 18.6844 17.275C18.6937 17.2656 18.6938 17.2594 18.6938 17.25C18.6938 17.2406 18.6937 17.2344 18.6844 17.225C18.675 17.225 18.6687 17.2156 18.65 17.2156H18.6V17.325H18.625V17.2812H18.6344L18.6687 17.325H18.6938L18.6594 17.2844ZM21 6.5V17.5C21 18.3281 20.3281 19 19.5 19H4.5C3.67188 19 3 18.3281 3 17.5V6.5C3 5.67188 3.67188 5 4.5 5H19.5C20.3281 5 21 5.67188 21 6.5ZM5 10.8625C5 13.2531 6.94062 15.1906 9.32812 15.1906C10.1781 15.1906 11.0125 14.9344 11.7188 14.4688C9.44063 12.6156 9.45625 9.11875 11.7188 7.26562C11.0125 6.79688 10.1781 6.54375 9.32812 6.54375C6.94062 6.54063 5 8.48125 5 10.8625ZM12 14.2625C14.2031 12.5437 14.1938 9.19375 12 7.46563C9.80625 9.19375 9.79688 12.5469 12 14.2625ZM7.55312 16.6469C7.55312 16.375 7.375 16.1969 7.09375 16.1875C6.95 16.1875 6.79688 16.2312 6.69375 16.3906C6.61875 16.2625 6.49062 16.1875 6.3125 16.1875C6.19375 16.1875 6.075 16.2312 5.98125 16.3562V16.2188H5.725V17.3656H5.98125C5.98125 16.775 5.90313 16.4219 6.2625 16.4219C6.58125 16.4219 6.51875 16.7406 6.51875 17.3656H6.76562C6.76562 16.7938 6.6875 16.4219 7.04688 16.4219C7.36562 16.4219 7.30312 16.7344 7.30312 17.3656H7.55937V16.6469H7.55312ZM8.95625 16.2188H8.70937V16.3562C8.625 16.2531 8.50625 16.1875 8.34375 16.1875C8.02187 16.1875 7.775 16.4437 7.775 16.7906C7.775 17.1406 8.02187 17.3938 8.34375 17.3938C8.50625 17.3938 8.625 17.3344 8.70937 17.225V17.3687H8.95625V16.2188ZM10.2219 17.0188C10.2219 16.55 9.50625 16.7625 9.50625 16.5437C9.50625 16.3656 9.87812 16.3937 10.0844 16.5094L10.1875 16.3062C9.89375 16.1156 9.24375 16.1187 9.24375 16.5625C9.24375 17.0094 9.95937 16.8219 9.95937 17.0312C9.95937 17.2281 9.5375 17.2125 9.3125 17.0562L9.20312 17.2531C9.55312 17.4906 10.2219 17.4406 10.2219 17.0188ZM11.3281 17.3094L11.2594 17.0969C11.1406 17.1625 10.8781 17.2344 10.8781 16.9688V16.45H11.2875V16.2188H10.8781V15.8687H10.6219V16.2188H10.3844V16.4469H10.6219V16.9688C10.6219 17.5188 11.1625 17.4187 11.3281 17.3094ZM11.7437 16.8906H12.6031C12.6031 16.3844 12.3719 16.1844 12.0594 16.1844C11.7281 16.1844 11.4906 16.4313 11.4906 16.7875C11.4906 17.4281 12.1969 17.5344 12.5469 17.2312L12.4281 17.0437C12.1844 17.2437 11.8156 17.225 11.7437 16.8906ZM13.5906 16.2188C13.4469 16.1562 13.2281 16.1625 13.1156 16.3562V16.2188H12.8594V17.3656H13.1156V16.7188C13.1156 16.3562 13.4125 16.4031 13.5156 16.4563L13.5906 16.2188ZM13.9219 16.7906C13.9219 16.4344 14.2844 16.3187 14.5688 16.5281L14.6875 16.325C14.325 16.0406 13.6656 16.1969 13.6656 16.7937C13.6656 17.4125 14.3656 17.5375 14.6875 17.2625L14.5688 17.0594C14.2812 17.2625 13.9219 17.1406 13.9219 16.7906ZM16.0063 16.2188H15.75V16.3562C15.4906 16.0125 14.8156 16.2062 14.8156 16.7906C14.8156 17.3906 15.5156 17.5625 15.75 17.225V17.3687H16.0063V16.2188ZM17.0594 16.2188C16.9844 16.1812 16.7156 16.1281 16.5844 16.3562V16.2188H16.3375V17.3656H16.5844V16.7188C16.5844 16.375 16.8656 16.3969 16.9844 16.4563L17.0594 16.2188ZM18.3188 15.7531H18.0719V16.3562C17.8156 16.0156 17.1375 16.1969 17.1375 16.7906C17.1375 17.3969 17.8406 17.5594 18.0719 17.225V17.3687H18.3188V15.7531ZM18.5562 13.4062V13.55H18.5813V13.4062H18.6406V13.3813H18.4969V13.4062H18.5562ZM18.7625 17.275C18.7625 17.2594 18.7625 17.2406 18.7531 17.225C18.7438 17.2156 18.7375 17.2 18.7281 17.1906C18.7188 17.1813 18.7031 17.175 18.6938 17.1656C18.6781 17.1656 18.6594 17.1562 18.6438 17.1562C18.6344 17.1562 18.6188 17.1656 18.6 17.1656C18.5844 17.175 18.575 17.1813 18.5656 17.1906C18.55 17.2 18.5406 17.2156 18.5406 17.225C18.5312 17.2406 18.5312 17.2594 18.5312 17.275C18.5312 17.2844 18.5312 17.3 18.5406 17.3188C18.5406 17.3281 18.55 17.3438 18.5656 17.3531C18.575 17.3625 18.5813 17.3688 18.6 17.3781C18.6156 17.3875 18.6344 17.3875 18.6438 17.3875C18.6594 17.3875 18.6781 17.3875 18.6938 17.3781C18.7031 17.3688 18.7188 17.3625 18.7281 17.3531C18.7375 17.3438 18.7438 17.3281 18.7531 17.3188C18.7625 17.3 18.7625 17.2844 18.7625 17.275ZM18.8625 13.3781H18.8188L18.7688 13.4875L18.7188 13.3781H18.675V13.5469H18.7V13.4187L18.75 13.5281H18.7844L18.8281 13.4187V13.5469H18.8625V13.3781ZM19 10.8625C19 8.48125 17.0594 6.54063 14.6719 6.54063C13.8219 6.54063 12.9875 6.79688 12.2812 7.2625C14.5344 9.11562 14.5688 12.6219 12.2812 14.4656C12.9875 14.9344 13.8281 15.1875 14.6719 15.1875C17.0594 15.1906 19 13.2531 19 10.8625Z" fill="#EEE8B2"/>
</svg>
