<svg width="24" height="24" viewBox="0 0 24 24" fill="none" xmlns="http://www.w3.org/2000/svg">
<path d="M17.6906 11.2281C17.6906 11.2281 17.9281 12.3906 17.9812 12.6344H16.9375C17.0406 12.3562 17.4375 11.275 17.4375 11.275C17.4312 11.2844 17.5406 10.9906 17.6031 10.8094L17.6906 11.2281ZM21 6.5V17.5C21 18.3281 20.3281 19 19.5 19H4.5C3.67188 19 3 18.3281 3 17.5V6.5C3 5.67188 3.67188 5 4.5 5H19.5C20.3281 5 21 5.67188 21 6.5ZM7.76562 14.35L9.74062 9.5H8.4125L7.18437 12.8125L7.05 12.1406L6.6125 9.90938C6.54062 9.6 6.31875 9.5125 6.04375 9.5H4.02188L4 9.59688C4.49375 9.72188 4.93437 9.90312 5.31875 10.1312L6.4375 14.35H7.76562ZM10.7156 14.3562L11.5031 9.5H10.2469L9.4625 14.3562H10.7156ZM15.0875 12.7688C15.0938 12.2156 14.7563 11.7938 14.0344 11.4469C13.5938 11.225 13.325 11.075 13.325 10.8469C13.3313 10.6406 13.5531 10.4281 14.0469 10.4281C14.4563 10.4187 14.7562 10.5156 14.9812 10.6125L15.0938 10.6656L15.2656 9.61562C15.0188 9.51875 14.625 9.40938 14.1406 9.40938C12.9 9.40938 12.0281 10.0719 12.0219 11.0156C12.0125 11.7125 12.6469 12.1 13.1219 12.3344C13.6062 12.5719 13.7719 12.7281 13.7719 12.9375C13.7656 13.2625 13.3781 13.4125 13.0188 13.4125C12.5188 13.4125 12.25 13.3344 11.8406 13.1531L11.675 13.075L11.5 14.1656C11.7937 14.3 12.3375 14.4187 12.9 14.425C14.2188 14.4281 15.0781 13.775 15.0875 12.7688ZM19.5 14.3562L18.4875 9.5H17.5156C17.2156 9.5 16.9875 9.5875 16.8594 9.90312L14.9937 14.3562H16.3125C16.3125 14.3562 16.5281 13.7563 16.575 13.6281H18.1875C18.225 13.8 18.3375 14.3562 18.3375 14.3562H19.5Z" fill="#EEE8B2"/>
</svg>
