<svg width="24" height="24" viewBox="0 0 24 24" fill="none" xmlns="http://www.w3.org/2000/svg">
<path d="M21 12.0334C21 7.06235 16.9711 3.03345 12 3.03345C7.02891 3.03345 3 7.06235 3 12.0334C3 16.2522 5.90742 19.7959 9.82734 20.7698V14.7827H7.97109V12.0334H9.82734V10.8487C9.82734 7.78657 11.2125 6.36626 14.2219 6.36626C14.7914 6.36626 15.7758 6.47876 16.1801 6.59126V9.08032C15.9691 9.05923 15.6 9.04517 15.1395 9.04517C13.6629 9.04517 13.0934 9.60415 13.0934 11.0561V12.0334H16.0324L15.5262 14.7827H13.0898V20.9667C17.5477 20.4288 21 16.6354 21 12.0334Z" fill="#EEE8B2"/>
</svg>
