<svg width="24" height="24" viewBox="0 0 24 24" fill="none" xmlns="http://www.w3.org/2000/svg">
<path d="M5.97398 10.8456V12.0071H7.57979C7.54748 12.1919 7.47829 12.3683 7.37634 12.5258C7.27439 12.6833 7.14178 12.8187 6.9864 12.9239C6.71923 13.1095 6.37613 13.2135 5.97398 13.2135C5.19779 13.2135 4.54252 12.682 4.30629 11.9705C4.1831 11.596 4.1831 11.1919 4.30629 10.8175C4.54252 10.1003 5.19779 9.5688 5.97398 9.5688C6.18437 9.56495 6.39342 9.603 6.58896 9.68073C6.78451 9.75847 6.96263 9.87433 7.11295 10.0216L7.96507 9.15821C7.42828 8.64861 6.71409 8.36818 5.97398 8.3764C5.42055 8.37855 4.87874 8.53531 4.40965 8.82898C3.94057 9.12266 3.56288 9.54157 3.31918 10.0385C3.10928 10.4585 3 10.9216 3 11.3912C3 11.8607 3.10928 12.3238 3.31918 12.7439V12.7495C3.56274 13.2463 3.94048 13.665 4.40966 13.9582C4.87883 14.2514 5.42071 14.4075 5.97398 14.4087C6.77548 14.4087 7.45324 14.1416 7.94257 13.6804C8.50503 13.1573 8.82563 12.3811 8.82563 11.4615C8.8266 11.2552 8.81061 11.0492 8.77782 10.8456H5.97398ZM16.925 10.7331C16.641 10.4687 16.2529 10.3366 15.7607 10.3366C15.128 10.3366 14.6555 10.57 14.3405 11.0368L14.9283 11.4108C15.1439 11.0921 15.4373 10.9328 15.8085 10.9328C16.0455 10.9332 16.2739 11.0214 16.4497 11.1802C16.5343 11.2543 16.6022 11.3455 16.6488 11.4478C16.6953 11.5501 16.7195 11.6612 16.7197 11.7736V11.9283C16.4638 11.7849 16.1404 11.709 15.7467 11.709C15.2854 11.709 14.9114 11.8186 14.6358 12.0408C14.3602 12.263 14.2196 12.5554 14.2196 12.9295C14.2149 13.0961 14.2476 13.2616 14.3152 13.4139C14.3829 13.5662 14.4838 13.7015 14.6105 13.8097C14.872 14.0431 15.2011 14.1613 15.5892 14.1613C16.0476 14.1613 16.4104 13.956 16.686 13.5454H16.7141V14.0431H17.3497V11.8299C17.3525 11.3659 17.2119 10.9946 16.925 10.7331ZM16.385 13.2445C16.2875 13.344 16.1712 13.4231 16.0427 13.4772C15.9143 13.5313 15.7763 13.5593 15.637 13.5594C15.4501 13.562 15.2681 13.4993 15.1223 13.3823C15.0541 13.3313 14.9987 13.2651 14.9606 13.1889C14.9225 13.1128 14.9028 13.0287 14.903 12.9435C14.903 12.7467 14.993 12.5836 15.1701 12.4542C15.3473 12.3248 15.5779 12.2573 15.8479 12.2573C16.2191 12.2517 16.5088 12.3361 16.7141 12.502C16.7141 12.7889 16.6044 13.0363 16.385 13.2445ZM13.7499 9.25102C13.6007 9.10184 13.423 8.98435 13.2272 8.90558C13.0315 8.82681 12.8219 8.78838 12.611 8.79261H10.8505V14.0431H11.5142V11.9171H12.611C13.0609 11.9171 13.4406 11.7652 13.7499 11.4699C13.7752 11.4446 13.8006 11.4193 13.8259 11.394C14.0963 11.0981 14.2401 10.7082 14.2264 10.3076C14.2128 9.90701 14.0427 9.52772 13.7527 9.25102H13.7499ZM13.2831 11.0003C13.1994 11.0896 13.0978 11.1601 12.9848 11.2071C12.8718 11.2541 12.7502 11.2766 12.6278 11.273H11.5142V9.43944H12.6278C12.8656 9.43835 13.094 9.53137 13.2634 9.69817C13.436 9.86952 13.5349 10.1015 13.5391 10.3446C13.5433 10.5878 13.4525 10.823 13.2859 11.0003H13.2831ZM20.2772 10.4519L19.2508 13.0307H19.2367L18.1849 10.4519H17.4621L18.9189 13.8154L18.0921 15.6236H18.7783L21 10.4519H20.2772Z" fill="#EEE8B2"/>
</svg>
