<svg width="24" height="24" viewBox="0 0 24 24" fill="none" xmlns="http://www.w3.org/2000/svg">
<path d="M12.002 7.386C9.44808 7.386 7.38806 9.44601 7.38806 11.9999C7.38806 14.5539 9.44808 16.6139 12.002 16.6139C14.5559 16.6139 16.616 14.5539 16.616 11.9999C16.616 9.44601 14.5559 7.386 12.002 7.386ZM12.002 14.9996C10.3516 14.9996 9.00234 13.6544 9.00234 11.9999C9.00234 10.3455 10.3476 9.00028 12.002 9.00028C13.6564 9.00028 15.0017 10.3455 15.0017 11.9999C15.0017 13.6544 13.6524 14.9996 12.002 14.9996ZM17.8809 7.19727C17.8809 7.7956 17.399 8.27345 16.8047 8.27345C16.2064 8.27345 15.7285 7.79158 15.7285 7.19727C15.7285 6.60296 16.2104 6.12108 16.8047 6.12108C17.399 6.12108 17.8809 6.60296 17.8809 7.19727ZM20.9368 8.28952C20.8685 6.84791 20.5392 5.57094 19.4831 4.51885C18.431 3.46676 17.154 3.13748 15.7124 3.0652C14.2267 2.98087 9.77334 2.98087 8.28756 3.0652C6.84997 3.13346 5.57301 3.46275 4.5169 4.51484C3.46079 5.56693 3.13553 6.84389 3.06325 8.2855C2.97892 9.77128 2.97892 14.2246 3.06325 15.7104C3.13151 17.152 3.46079 18.4289 4.5169 19.481C5.57301 20.5331 6.84596 20.8624 8.28756 20.9347C9.77334 21.019 14.2267 21.019 15.7124 20.9347C17.154 20.8664 18.431 20.5371 19.4831 19.481C20.5352 18.4289 20.8645 17.152 20.9368 15.7104C21.0211 14.2246 21.0211 9.77529 20.9368 8.28952ZM19.0173 17.3046C18.7041 18.0916 18.0977 18.698 17.3066 19.0152C16.122 19.4851 13.3111 19.3766 12.002 19.3766C10.6929 19.3766 7.87797 19.481 6.69738 19.0152C5.91032 18.702 5.30396 18.0957 4.98673 17.3046C4.5169 16.12 4.62532 13.309 4.62532 11.9999C4.62532 10.6909 4.52091 7.87591 4.98673 6.69532C5.29994 5.90826 5.9063 5.3019 6.69738 4.98466C7.88199 4.51484 10.6929 4.62326 12.002 4.62326C13.3111 4.62326 16.126 4.51885 17.3066 4.98466C18.0937 5.29788 18.7001 5.90424 19.0173 6.69532C19.4871 7.87992 19.3787 10.6909 19.3787 11.9999C19.3787 13.309 19.4871 16.124 19.0173 17.3046Z" fill="#EEE8B2"/>
</svg>
