<svg width="24" height="24" viewBox="0 0 24 24" fill="none" xmlns="http://www.w3.org/2000/svg">
<path d="M19.8758 10.38C18.3274 10.3833 16.817 9.89998 15.5582 8.99825V15.2848C15.5578 16.4491 15.202 17.5855 14.5383 18.5421C13.8745 19.4987 12.9345 20.2298 11.844 20.6377C10.7535 21.0456 9.56445 21.1108 8.43588 20.8246C7.30731 20.5384 6.29302 19.9144 5.52868 19.0361C4.76434 18.1578 4.28639 17.0671 4.15874 15.9098C4.03109 14.7525 4.25983 13.5839 4.81437 12.5601C5.36891 11.5364 6.22281 10.7063 7.26187 10.181C8.30094 9.65571 9.47562 9.46018 10.6288 9.62057V12.7814C10.1015 12.6154 9.53525 12.6203 9.01087 12.7953C8.48649 12.9703 8.03081 13.3065 7.7089 13.756C7.38699 14.2054 7.21531 14.745 7.21837 15.2978C7.22142 15.8506 7.39906 16.3883 7.72592 16.8341C8.05278 17.28 8.51215 17.6111 9.03843 17.7803C9.56471 17.9495 10.131 17.9481 10.6564 17.7763C11.1819 17.6045 11.6396 17.2711 11.9642 16.8236C12.2889 16.3762 12.4638 15.8376 12.4642 15.2848V3H15.5582C15.5565 3.26168 15.5788 3.52297 15.625 3.78055C15.7326 4.3547 15.9562 4.90089 16.282 5.38572C16.6078 5.87056 17.0291 6.28385 17.5201 6.60035C18.219 7.06194 19.0383 7.30772 19.8758 7.30706V10.38Z" fill="#EEE8B2"/>
</svg>
